<?xml version="1.0" encoding="windows-1252"?>
<!-- Generator: Adobe Illustrator 21.0.2, SVG Export Plug-In . SVG Version: 6.00 Build 0)  -->
<svg xmlns="http://www.w3.org/2000/svg" xmlns:xlink="http://www.w3.org/1999/xlink" version="1.1" x="0px" y="0px" viewBox="0 0 40 40" style="enable-background:new 0 0 40 40;" xml:space="preserve">
<g id="Layer_1">
</g>
<g id="Layer_2">
	<g>
		<g>
			<path style="fill:#98CCFD;" d="M16.584,11.717l4.822-4.822c0.9-0.899,2.096-1.395,3.368-1.395c1.272,0,2.469,0.496,3.369,1.395     l1.334,1.335L36,1.707L38.293,4l-6.523,6.523l1.335,1.334c1.857,1.857,1.857,4.879,0,6.737l-4.822,4.822L16.584,11.717z"/>
		</g>
		<g>
			<path style="fill:#4788C7;" d="M36,2.414L37.586,4L31.77,9.816l-0.707,0.707l0.707,0.707l0.981,0.981     c1.662,1.662,1.662,4.367,0,6.03l-4.468,4.468L17.291,11.717l4.468-4.468C22.565,6.443,23.635,6,24.774,6     c1.139,0,2.209,0.443,3.015,1.249L28.77,8.23l0.707,0.707l0.707-0.707L36,2.414 M36,1l-6.523,6.523l-0.981-0.981     C27.468,5.514,26.121,5,24.774,5c-1.347,0-2.694,0.514-3.722,1.542l-5.175,5.175l12.406,12.406l5.175-5.175     c2.055-2.056,2.055-5.388,0-7.444l-0.981-0.981L39,4L36,1L36,1z"/>
		</g>
	</g>
	<g>
		<path style="fill:#98CCFD;" d="M12.485,13.701l2.067-2.067c0.644-0.644,1.468-1.013,2.261-1.013c0.562,0,1.044,0.187,1.397,0.539    l10.63,10.63c0.877,0.878,0.665,2.519-0.475,3.658l-2.067,2.067L12.485,13.701z"/>
		<path style="fill:#4788C7;" d="M16.813,11.121c0.297,0,0.72,0.068,1.044,0.392l10.63,10.63c0.671,0.671,0.454,2.023-0.475,2.951    L26.3,26.807L13.193,13.701l1.713-1.713C15.448,11.445,16.162,11.121,16.813,11.121 M16.813,10.121    c-0.887,0-1.852,0.397-2.615,1.16l-2.42,2.42L26.3,28.221l2.42-2.42c1.337-1.337,1.549-3.291,0.475-4.365l-10.63-10.63    C18.103,10.345,17.48,10.121,16.813,10.121L16.813,10.121z"/>
	</g>
	<g>
		<g>
			<path style="fill:#98CCFD;" d="M1.707,36l6.523-6.523l-1.335-1.334c-1.857-1.857-1.857-4.88,0-6.737l4.822-4.822l11.699,11.699     l-4.822,4.822c-0.9,0.899-2.096,1.395-3.368,1.395c-1.272,0-2.469-0.496-3.369-1.395l-1.334-1.335L4,38.293L1.707,36z"/>
		</g>
		<g>
			<path style="fill:#4788C7;" d="M11.717,17.291l10.992,10.992l-4.468,4.468C17.435,33.556,16.365,34,15.226,34     s-2.209-0.443-3.015-1.249L11.23,31.77l-0.707-0.707L9.816,31.77L4,37.586L2.414,36l5.816-5.816l0.707-0.707L8.23,28.77     l-0.981-0.981c-1.662-1.662-1.662-4.367,0-6.029L11.717,17.291 M11.717,15.877l-5.175,5.175c-2.055,2.055-2.055,5.388,0,7.444     l0.981,0.981L1,36l3,3l6.523-6.523l0.981,0.981C12.532,34.486,13.879,35,15.226,35s2.694-0.514,3.722-1.542l5.175-5.175     L11.717,15.877L11.717,15.877z"/>
		</g>
	</g>
	<g>
		<path style="fill:#98CCFD;" d="M23.326,29.462c-0.589,0-1.135-0.221-1.536-0.622l-10.63-10.63    c-0.877-0.878-0.818-2.365,0.133-3.316l1.725-1.725l13.814,13.813l-1.725,1.725C24.626,29.188,23.978,29.462,23.326,29.462    L23.326,29.462z"/>
		<path style="fill:#4788C7;" d="M13.017,13.876l13.107,13.107l-1.371,1.371c-0.387,0.387-0.907,0.608-1.427,0.608    c-0.456,0-0.876-0.169-1.183-0.476l-10.63-10.63c-0.683-0.683-0.623-1.853,0.133-2.609L13.017,13.876 M13.017,12.462l-2.078,2.078    c-1.148,1.148-1.207,2.949-0.133,4.024l10.63,10.63c0.514,0.514,1.194,0.768,1.89,0.768c0.759,0,1.535-0.303,2.134-0.901    l2.078-2.078L13.017,12.462L13.017,12.462z"/>
	</g>
</g>
</svg>